<svg width="200" height="60" viewBox="0 0 200 60" xmlns="http://www.w3.org/2000/svg">
  <!-- Book shape -->
  <path d="M20 10 Q20 5 25 5 L55 5 Q60 5 60 10 L60 50 Q60 55 55 55 L25 55 Q20 55 20 50 Z" fill="#2C3E50"/>
  
  <!-- Book pages -->
  <path d="M25 10 L55 10 L55 15 L25 15 Z" fill="#3498DB"/>
  <path d="M25 20 L55 20 L55 25 L25 25 Z" fill="#3498DB"/>
  <path d="M25 30 L55 30 L55 35 L25 35 Z" fill="#3498DB"/>
  <path d="M25 40 L55 40 L55 45 L25 45 Z" fill="#3498DB"/>
  
  <!-- Sharing arrow -->
  <path d="M70 30 L90 30 L90 20 L110 35 L90 50 L90 40 L70 40 Z" fill="#E74C3C"/>
  
  <!-- Text -->
  <text x="125" y="25" font-family="Arial, sans-serif" font-size="18" font-weight="bold" fill="#2C3E50">Scholar</text>
  <text x="125" y="45" font-family="Arial, sans-serif" font-size="18" font-weight="bold" fill="#E74C3C">Share</text>
</svg>